<svg width="1390" height="575" viewBox="0 0 1390 575" fill="none" xmlns="http://www.w3.org/2000/svg">
<mask id="mask0_908_4312" style="mask-type:luminance" maskUnits="userSpaceOnUse" x="0" y="0" width="1390" height="575">
<path d="M1390 0H0V575H1390V0Z" fill="white"/>
</mask>
<g mask="url(#mask0_908_4312)">
<path d="M1360.24 335.348L811.058 370.028L213.89 440.524L201.61 372.459L175.301 326.224C175.301 326.224 179.076 191.975 173.924 190.354C168.773 188.733 451.756 167.374 451.756 167.374L499.416 197.533L1390.05 104.609L1360.24 335.348Z" fill="white"/>
<path d="M862.639 0.745361L826.528 7.40597L781.168 101.821L766.329 85.0158L762.538 88.6621C754.94 95.9386 748.347 100.687 742.968 102.777C740.91 103.664 738.722 104.212 736.488 104.398H736.083C734.053 104.535 732.05 103.865 730.511 102.534C728.723 100.686 727.547 98.3323 727.141 95.7927C725.996 89.6853 726.83 83.3717 729.522 77.7718C732.163 71.7432 735.662 68.0483 740.214 66.5898L740.441 66.5087C741.084 66.2661 741.763 66.1346 742.45 66.1198H742.79C745.7 66.1711 748.514 67.1663 750.809 68.9558C754.326 71.5434 757.582 74.469 760.529 77.6908L764.45 81.9691L800.058 38.2619L797.611 35.0207C791.232 26.5758 783.257 19.4672 774.137 14.099C765.702 9.19048 756.113 6.61223 746.354 6.6281H744.734C733.668 7.13753 722.902 10.3897 713.403 16.0923L713.225 16.1895L713.063 16.303C702.958 23.2818 694.294 32.1465 687.548 42.4106C680.452 52.933 675.249 64.6148 672.174 76.9291C670.929 81.8882 670.127 86.9481 669.776 92.0492C668.74 90.7689 667.654 89.4724 666.439 88.2246C660.81 83.0353 654.858 78.2071 648.619 73.7689C641.718 68.6641 636.744 64.7585 633.861 62.1332C631.253 59.7833 630.799 58.3896 630.718 57.9034L630.929 57.7089C632.208 56.5097 634.865 55.7804 638.413 55.6346H639.66C642.937 55.6719 646.198 56.0851 649.381 56.8663C652.911 57.628 656.33 58.8369 659.554 60.464C660.728 61.0167 661.819 61.7313 662.794 62.5869L667.152 74.3848L690.577 17.3402L685.053 15.8492C675.019 13.1268 664.67 11.7374 654.273 11.7167C652.766 11.7167 651.244 11.7167 649.737 11.7978C637.27 12.147 624.987 14.8982 613.562 19.9007C604.508 23.7793 596.376 29.5283 589.699 36.771C589.905 33.6378 590.083 30.5101 590.234 27.3878L590.59 19.9655L541.034 37.0789L539.56 47.3372C531.007 108.822 522.874 123.375 519.44 126.843C519.342 126.454 519.245 126 519.164 125.466C518.144 119.291 518.468 110.184 520.136 98.3695C521.853 86.134 524.381 70.6736 527.588 52.4907L530.602 36.6575L479.425 33.9188L478.972 38.7805C478.713 41.5031 477.773 48.1475 476.218 58.503C473.529 75.6326 471.52 90.7041 470.24 103.377C466.473 97.9921 461.718 93.3725 456.227 89.7641C466.66 77.8042 471.698 66.4439 471.228 55.9749C471.221 54.3448 471.075 52.7183 470.791 51.1132C467.065 28.7329 446.199 24.0332 429.351 24.0332C427.731 24.0332 426.111 24.0332 424.491 24.1466C415.683 24.586 406.923 25.724 398.295 27.5498C389.596 29.3811 379.471 31.7796 368.212 34.6966L364.68 35.6042L355.43 185.379L360.29 185.768C366.608 186.254 372.651 186.497 378.272 186.497C381.042 186.497 383.764 186.497 386.372 186.319C411.45 185.184 432.332 179.285 448.467 168.8C459.013 161.929 466.595 153.55 471.147 143.762C476.493 171.847 492.969 177.794 506.01 177.794C509.344 177.771 512.669 177.435 515.94 176.79C536.353 172.916 552.229 161.572 563.131 143.081C573.445 125.743 580.48 106.653 583.884 86.7661L584.564 82.5201C586.07 84.9053 587.766 87.1652 589.635 89.278C592.396 92.2727 595.398 95.0369 598.609 97.5429C601.849 100.114 605.127 102.545 608.443 104.836C611.782 106.976 614.975 109.337 618.001 111.901C619.734 113.522 619.832 114.267 619.832 114.267C619.832 114.267 619.702 114.818 618.536 115.758C616.411 117.473 613.78 118.436 611.051 118.497H610.176C606.571 118.425 603.006 117.718 599.646 116.407C595.209 114.776 590.922 112.765 586.832 110.394L582.215 107.72L558.709 154.28L563.828 156.305C577.019 161.614 591.098 164.364 605.316 164.408C606.758 164.408 608.216 164.408 609.674 164.408C621.693 164.038 633.529 161.359 644.537 156.516C654.315 152.409 662.929 145.952 669.614 137.717C672.182 134.442 674.261 130.812 675.787 126.94C679.922 135.657 686.022 143.295 693.607 149.256C703.003 156.905 715.185 160.794 729.846 160.794H732.179C741.579 160.487 750.884 158.811 759.8 155.819C768.474 153.03 776.714 149.037 784.279 143.957C785.899 142.855 787.373 141.72 788.782 140.586L821.831 152.675L829.283 122.954L854.198 121.203L866.527 147.976L924.215 119.988L862.639 0.745361ZM414.123 75.1951C415.505 74.5788 416.976 74.185 418.481 74.0282H418.756C418.756 74.0282 418.756 74.1579 418.756 74.2389C418.82 75.0155 418.82 75.796 418.756 76.5726C416.958 81.9043 414.738 84.1245 412.908 85.0644L414.123 75.1951ZM420.425 133.244C417.135 135.499 413.25 136.723 409.263 136.761L408.825 125.887C412.159 123.988 415.849 122.796 419.663 122.387H420.133C422.126 122.387 423.373 122.581 423.616 126.276C423.74 127.623 423.505 128.978 422.936 130.205C422.367 131.432 421.484 132.486 420.376 133.261M842.469 81.5478L844.737 75.6974L846.066 80.6727L842.469 81.5478Z" fill="black"/>
<path d="M295.846 205.636L229.377 218.682L183.839 274.171L210.326 312.546L225.278 296.178L226.526 428.256L288.119 433.296L295.846 205.636Z" fill="black"/>
<path d="M294.404 416.021L293.837 421.92L430.112 402.764L442.927 326.483L395.687 336.774C403.301 329.886 411.029 322.189 418.788 313.956C431.133 300.867 441.964 286.429 451.075 270.913C459.953 255.615 464.456 241.5 464.456 228.973C464.456 204.842 447.803 189.657 414.965 183.839C411.886 183.283 408.763 183.001 405.634 182.997C404.37 182.997 403.107 182.997 401.859 183.142C386.242 184.358 370.075 191.116 353.81 203.221C338.098 214.925 323.46 228.007 310.07 242.31L307.964 244.563L333.495 302.304L338.355 296.632C342.873 291.945 347.648 287.514 352.66 283.359C360.297 276.698 368.319 270.492 376.684 264.771C386.696 257.949 391.54 256.668 393.532 256.506C391.394 260.37 388.811 263.97 385.837 267.235C378.758 275.613 367.774 287.476 353.146 302.531C339.602 316.76 328.635 328.509 320.632 337.503C312.338 346.822 306.862 354.211 303.995 359.948C301.775 364 300.123 370.109 298.94 378.601C297.855 386.412 296.915 393.9 296.138 400.884C295.833 402.212 295.627 403.561 295.522 404.92C295.247 407.383 294.874 411.094 294.404 416.021Z" fill="black"/>
<path d="M463.193 535.02L466.06 486.03L438.601 495.3L448.516 418.03L404.516 429.374L404.322 431.578L334.37 442.469L333.041 455.433C329.97 449.886 325.502 445.238 320.081 441.95C312.467 437.186 302.261 434.771 289.625 434.771C286.288 434.771 282.724 434.949 279.03 435.273C269.411 436.222 259.889 437.983 250.567 440.54L247.327 441.399L238.19 561.322L243.05 561.549C244.67 561.549 246.29 561.663 247.91 561.663C250.259 561.663 252.478 561.566 254.503 561.387C270.295 559.876 285.331 553.901 297.855 544.16C309.962 535.13 320.026 523.643 327.388 510.452L323.775 546.883L395.331 537.16L394.245 549.703L463.193 535.02ZM292.12 496.353C290.646 501.061 288.183 505.398 284.895 509.075C283.472 510.728 281.869 512.218 280.116 513.515L283.777 482.838C287.244 479.742 289.398 479.11 290.435 479.013H290.646C290.879 479.007 291.109 479.062 291.314 479.173C291.518 479.284 291.69 479.447 291.812 479.645C292.778 480.958 293.341 482.523 293.432 484.15C293.826 488.276 293.351 492.438 292.039 496.369M386.907 496.045L392.156 472.871L399.575 471.963L401.568 463.034L398.911 493.825L386.907 496.045Z" fill="black"/>
<path d="M1340.72 230.869C1335.59 226.221 1330.18 221.891 1324.52 217.904C1318.3 213.334 1313.79 209.801 1311.14 207.451C1308.48 205.101 1308.09 203.708 1308.03 203.189L1308.17 203.027C1309.06 202.006 1311.11 201.406 1313.92 201.115C1314.52 201.115 1315.12 201.115 1315.75 201.115C1318.23 201.141 1320.69 201.435 1323.09 201.99C1326.15 202.577 1329.12 203.569 1331.92 204.939C1332.99 205.429 1333.98 206.08 1334.85 206.868L1339.81 218.812L1356.14 163.906L1351.44 162.691C1343.68 160.674 1335.7 159.64 1327.68 159.612C1325.41 159.612 1323.14 159.693 1320.89 159.871C1310.19 160.548 1299.75 163.51 1290.29 168.557C1281.8 172.964 1274.59 179.476 1269.34 187.469C1268.57 188.691 1267.86 189.951 1267.22 191.245L1272.08 165.446L1186.67 179.448L1185.89 188.49C1182.53 182.991 1177.55 178.675 1171.62 176.142C1164.22 172.657 1154.55 170.956 1142.04 170.956C1138.19 170.956 1133.94 171.134 1129.65 171.458C1118.21 172.417 1106.85 174.111 1095.63 176.53L1092.19 177.26L1089.78 211.422C1088.14 204.565 1085.04 198.143 1080.69 192.59C1074.76 185.201 1066.11 181.149 1054.77 180.582H1051.84C1050.67 180.582 1049.73 180.582 1048.96 180.582C1038.02 181.408 1027.39 185.816 1017.35 193.676C1007.7 201.23 999.348 210.312 992.628 220.562C989.918 224.68 987.425 228.937 985.16 233.316C985.16 231.857 984.965 230.415 984.771 228.989C984.026 222.702 981.829 216.675 978.353 211.385C974.878 206.094 970.22 201.685 964.747 198.506C955.675 192.898 943.331 190.046 928.054 190.046C924.571 190.046 920.878 190.192 917.071 190.484C905.842 191.427 894.711 193.308 883.796 196.107L880.556 196.917L874.772 274.414L841.546 197.436L809.178 205.263L765.195 298.155L775.952 195.913L758.65 198.457L765.341 167.779L686.171 179.658L684.356 217.288L674.005 211.616L666.423 264.658C665.971 260.614 665.235 256.606 664.22 252.666C662.01 243.484 657.416 235.048 650.903 228.211C644.326 221.486 635.351 217.807 624.157 217.272H621.241C620.074 217.272 619.119 217.272 618.39 217.353C607.254 218.228 596.656 222.505 588.031 229.605C579.182 236.581 571.701 245.136 565.966 254.837C560.895 262.953 557.216 271.859 555.08 281.188C554.196 286.416 553.881 291.725 554.14 297.021C554.253 299.906 554.529 302.807 554.934 305.707C553.269 303.416 551.439 301.25 549.458 299.225C543.471 293.774 537.157 288.692 530.553 284.008C523.214 278.627 517.9 274.479 514.758 271.659C511.615 268.839 510.951 267.024 510.837 266.181C510.8 266.06 510.8 265.93 510.838 265.808C510.875 265.687 510.948 265.58 511.048 265.501L511.21 265.339C512.409 263.945 514.936 263.07 518.516 262.794C519.245 262.794 519.974 262.794 520.735 262.794C523.696 262.83 526.645 263.177 529.532 263.831C533.198 264.593 536.749 265.83 540.095 267.51C541.494 268.126 542.773 268.988 543.869 270.054L548.859 282.063L567.149 220.562L562.451 219.363C553.389 217 544.065 215.791 534.7 215.765C532.076 215.765 529.419 215.862 526.794 216.057C514.33 216.85 502.179 220.298 491.154 226.169C481.308 231.287 472.941 238.848 466.854 248.128C461.271 256.444 458.888 266.502 460.147 276.44C461.33 285.256 465.558 293.731 472.735 301.624C475.667 304.759 478.847 307.653 482.244 310.277C485.727 313.016 489.21 315.577 492.645 317.927C496.211 320.215 499.626 322.732 502.867 325.462C504.924 327.294 505.264 328.428 505.313 328.833C505.41 329.498 504.94 330.324 503.985 331.28C502.046 333.206 499.471 334.359 496.743 334.521C496.241 334.521 495.723 334.521 495.123 334.521C491.676 334.445 488.267 333.776 485.047 332.544C480.408 330.866 475.925 328.783 471.649 326.321L466.903 323.582L447.625 374.145L451.95 375.765C464.362 380.726 477.594 383.315 490.96 383.398C493.455 383.398 495.998 383.301 498.493 383.107C504.973 382.636 511.382 381.462 517.609 379.606L452.193 567.286L516.993 572.148L537.729 504.521L561.511 563.089L589.148 504.472L600.489 575.081L665.597 553.77L661.109 531.439C669.08 546.137 680.468 553.592 695.129 553.592C699.917 553.543 704.675 552.839 709.272 551.502C732.147 545.019 748.736 529.591 758.585 505.542C761.701 497.924 764.373 490.132 766.588 482.205L758.488 538.926L816.808 538.634L823.936 477.198L880.831 535.733L900.125 353.223L887.165 524.26L892.025 524.486C894.455 524.6 896.804 524.665 899.04 524.665C902.442 524.665 905.65 524.519 908.566 524.26C931.003 522.25 952.176 513.791 971.503 499.14C990.034 485.306 1005.25 467.513 1016.04 447.055C1018.2 442.923 1020.16 438.683 1021.89 434.349C1021.89 436.78 1021.89 439.211 1021.89 441.934C1022.16 450.066 1023.24 458.15 1025.13 466.064C1028.62 480.828 1034.96 493.031 1043.97 502.317C1052.33 510.938 1063.41 515.282 1076.97 515.282C1078.7 515.282 1080.5 515.282 1082.26 515.071C1099.4 513.888 1113.95 507.843 1125.52 497.115C1136.68 486.805 1145.39 474.124 1151 460.003C1156.33 447.086 1159.61 433.417 1160.72 419.489C1161.81 406.485 1160.84 393.391 1157.84 380.692C1155.27 368.688 1149.7 357.533 1141.64 348.28C1133.52 339.448 1122.44 334.586 1108.69 334.084H1106.17C1104.21 334.084 1102.69 334.084 1101.51 334.246C1088.06 335.445 1075.43 341.117 1063.97 351.116C1052.87 360.788 1043.6 372.368 1036.58 385.311C1033.84 390.349 1031.36 395.532 1029.18 400.836C1029.25 397.305 1029.07 393.774 1028.64 390.27C1027.8 382.447 1025.16 374.928 1020.91 368.306C1016.67 361.684 1010.94 356.143 1004.18 352.121C993.308 345.331 978.582 341.879 960.438 341.879C955.578 341.879 950.394 342.122 945.016 342.608C930.983 343.994 917.092 346.569 903.495 350.306L900.352 351.149V351.035L842.793 360.613L840.995 404.271L782.367 371.73L774.639 425.971C775.287 403.494 774.801 380.352 773.165 357.064L772.695 350.29L719.916 374.842L719.705 387.028C718.555 472.401 710.131 488.769 706.486 491.913C705.826 490.615 705.32 489.244 704.979 487.829C702.857 479.823 701.901 467.977 702.128 452.597C702.371 436.861 703.051 416.944 704.169 393.527L705.238 375.425L648.117 375.83L648.246 380.595C648.246 384.176 648.246 392.733 647.89 406.038C647.242 427.818 647.08 447.022 647.42 463.212L626.182 357.55L564.622 435.338L527.199 376.187C529.143 375.328 531.055 374.42 532.902 373.415C542.486 368.471 550.607 361.102 556.457 352.04C560.562 345.653 562.858 338.27 563.099 330.681C565.571 334.993 568.641 338.932 572.219 342.381C579.169 349.026 588.419 352.413 599.646 352.413C600.845 352.413 602.092 352.413 603.307 352.299C617.126 351.57 628.887 347.178 638.251 339.335C647.159 331.917 654.215 322.522 658.857 311.898C659.3 310.872 659.721 309.851 660.121 308.835L653.916 352.105L705.06 352.429L710.827 302.288L759.557 351.392L761.76 330.502L799.652 344.537L807.461 315.69L828.667 313.227L838.387 338.719L871.338 320.26L870.414 332.739L875.161 332.998C877.559 333.144 879.859 333.209 881.997 333.209C884.136 333.209 886.453 333.128 888.478 332.982C906.793 331.503 924.321 324.892 939.054 313.908C953.872 303.351 966.097 289.564 974.808 273.587C975.213 272.826 975.602 272.064 975.99 271.302C975.936 275.821 976.206 280.338 976.8 284.818C978.42 296.762 982.551 306.68 989.129 314.313C995.447 321.622 1004.44 325.333 1015.86 325.333C1017.07 325.333 1018.32 325.333 1019.55 325.219C1032.83 324.657 1045.56 319.775 1055.81 311.315C1065.55 303.308 1073.54 293.378 1079.28 282.144C1081.74 277.352 1083.9 272.417 1085.76 267.364L1082.52 310.909L1123.88 312.854L1126.31 289.907L1153.01 313.519L1178.02 281.804L1175.19 315.139L1257.58 303.552L1258.2 297.572C1268.54 301.56 1279.51 303.636 1290.6 303.698C1292.73 303.698 1294.91 303.617 1297.08 303.455C1307.39 302.774 1317.44 299.907 1326.56 295.044C1334.8 290.762 1341.76 284.391 1346.76 276.569C1351.37 269.536 1353.32 261.088 1352.25 252.747C1351.2 244.903 1347.39 237.546 1340.72 230.82M1069.74 436.213C1070.02 431.834 1070.73 427.492 1071.85 423.248C1073.7 417.131 1076.76 411.449 1080.85 406.54C1084.26 401.949 1089.31 398.854 1094.95 397.903C1095.75 397.748 1096.57 397.666 1097.39 397.659C1098.34 397.614 1099.28 397.768 1100.16 398.111C1101.04 398.455 1101.83 398.98 1102.5 399.653C1104.96 402.314 1106.65 405.606 1107.36 409.166C1108.25 412.738 1108.57 416.432 1108.28 420.105V420.283C1107.83 426.046 1106.59 431.72 1104.62 437.153C1102.52 443.347 1099.22 449.064 1094.9 453.975C1093.25 456.005 1091.19 457.66 1088.86 458.831C1086.52 460.002 1083.97 460.662 1081.36 460.765C1077.53 460.765 1072.85 459.582 1070.65 450.328C1069.63 445.696 1069.34 440.934 1069.79 436.213M949.908 409.392C955.546 404.19 959.353 402.91 961.621 402.618H962.139C962.793 402.612 963.44 402.758 964.027 403.045C964.615 403.332 965.128 403.752 965.525 404.271C967.23 406.527 968.243 409.229 968.441 412.05C969.069 418.449 968.346 424.909 966.319 431.011C964.074 438.243 960.319 444.916 955.303 450.588C952.019 454.38 948.133 457.605 943.801 460.133L949.908 409.392ZM622.99 281.512V281.706C622.629 285.795 621.668 289.809 620.139 293.618C618.499 298.024 615.961 302.042 612.687 305.416C611.406 306.817 609.854 307.945 608.125 308.731C606.396 309.516 604.525 309.943 602.627 309.986C599.5 309.986 596.39 309.143 594.818 303.066C594.029 299.85 593.799 296.523 594.138 293.229C594.346 290.117 594.889 287.036 595.758 284.04C597.205 279.712 599.545 275.736 602.627 272.372C605.33 269.165 609.13 267.079 613.287 266.522C613.865 266.423 614.45 266.369 615.036 266.36C615.705 266.318 616.375 266.411 617.007 266.634C617.639 266.856 618.219 267.204 618.714 267.656C620.497 269.399 621.735 271.623 622.278 274.057C622.952 276.497 623.194 279.037 622.99 281.561M687.532 219.136L692.084 214.177C695.794 213.075 709.904 209.834 725.31 206.398L724.03 239.182L687.532 219.136ZM820.794 275.548L822.592 270.962L823.353 274.77L820.794 275.548ZM933.336 260.039C931.585 265.465 928.671 270.443 924.798 274.625C922.664 277.006 920.205 279.074 917.492 280.767L921.947 243.833C926.045 240.268 928.767 239.328 930.387 239.215H930.695C931.107 239.206 931.516 239.298 931.885 239.481C932.255 239.664 932.574 239.934 932.817 240.268C934.045 241.859 934.782 243.774 934.939 245.778C935.421 250.561 934.868 255.391 933.319 259.942M1046.72 248.89V249.068C1045.85 253.608 1044.4 258.015 1042.39 262.178C1040.2 267.052 1037.13 271.484 1033.34 275.257C1030.54 278.304 1026.66 280.131 1022.53 280.345C1019.84 280.345 1016.9 279.778 1016.05 273.166C1015.63 269.561 1015.79 265.912 1016.52 262.357C1017.1 258.913 1018.01 255.533 1019.23 252.26C1021.23 247.456 1024.09 243.061 1027.68 239.296C1030.68 235.833 1034.8 233.537 1039.32 232.813C1039.89 232.716 1040.47 232.662 1041.05 232.651C1041.62 232.596 1042.19 232.672 1042.73 232.875C1043.26 233.077 1043.74 233.4 1044.13 233.818C1045.71 235.748 1046.67 238.108 1046.9 240.592C1047.31 243.347 1047.26 246.151 1046.75 248.89M1138.44 221.858C1136.71 224.991 1134.41 227.772 1131.66 230.058C1130.7 230.903 1129.68 231.678 1128.61 232.376L1130.83 217.531C1133.1 216.337 1135.55 215.548 1138.09 215.198H1138.74C1139.13 215.196 1139.52 215.234 1139.9 215.311C1140.01 215.505 1140.06 215.722 1140.06 215.943C1140.12 218.041 1139.55 220.109 1138.44 221.891M1157.37 257.09C1166.32 249.532 1174.04 240.613 1180.22 230.658C1181.13 229.183 1181.97 227.709 1182.75 226.266L1178.73 273.442L1157.37 257.09ZM1301.05 258.046C1299.51 259.566 1297.48 260.477 1295.33 260.606C1294.93 260.606 1294.51 260.606 1294.06 260.606C1291.21 260.546 1288.39 259.998 1285.72 258.986C1281.79 257.571 1278 255.814 1274.38 253.735L1269.63 250.996L1260.45 275.062L1263.25 248.695L1247.05 251.823L1253.66 217.742L1262.38 216.64L1263.38 210.936C1263.38 211.276 1263.38 211.6 1263.46 211.94C1264.76 220.157 1268.57 227.773 1274.35 233.753C1276.88 236.456 1279.63 238.954 1282.56 241.224C1285.54 243.558 1288.5 245.719 1291.44 247.707C1294.45 249.62 1297.33 251.738 1300.06 254.043C1301.68 255.518 1301.9 256.344 1301.92 256.49C1301.78 257.075 1301.45 257.595 1300.98 257.965" fill="black"/>
<path d="M188.504 358.247C184.51 355.11 180.339 352.205 176.014 349.544C171.283 346.562 167.865 344.31 165.856 342.689C165.35 342.299 164.873 341.871 164.431 341.409C165.146 341.175 165.885 341.023 166.634 340.955C167.247 340.889 167.864 340.856 168.481 340.858C170.035 340.863 171.586 341.009 173.114 341.295C175.27 341.644 177.375 342.254 179.383 343.11C180.01 343.381 180.612 343.706 181.182 344.083L186.836 354.989L196.782 311.752L192.117 310.78C187.052 309.706 181.888 309.162 176.71 309.159C174.33 309.16 171.95 309.285 169.582 309.532C161.805 310.228 154.263 312.564 147.453 316.387C141.398 319.689 136.336 324.551 132.792 330.47C132.792 330.6 132.646 330.745 132.581 330.875C131.22 328.532 129.589 326.356 127.721 324.393C122.861 319.207 116.09 316.517 107.569 316.29C105.657 316.29 104.247 316.29 103.259 316.452C94.8093 317.437 86.8479 320.931 80.4009 326.483C73.7539 331.958 68.0985 338.536 63.6825 345.93C59.7871 352.156 56.89 358.952 55.0964 366.074C54.3149 370.028 53.9511 374.053 54.011 378.083L39.9979 382.944L43.3837 321.994L5.34594 332.139L4.39014 428.839L63.4395 415.875L63.2937 409.068C64.2513 410.309 65.2847 411.488 66.3879 412.601C71.2479 417.463 77.8413 419.926 85.828 419.926C87.1078 419.926 88.4524 419.926 89.7808 419.732C99.4499 419.102 108.648 415.329 115.976 408.987C122.708 403.142 128.082 395.897 131.723 387.758C132.452 386.137 133.1 384.516 133.699 382.896L126.134 406.978L130.508 408.436C137.852 410.924 145.548 412.215 153.301 412.261C155.568 412.261 157.834 412.148 160.089 411.921C167.593 411.226 174.867 408.962 181.441 405.276C187.348 402.073 192.266 397.315 195.665 391.517C198.793 386.182 199.805 379.866 198.5 373.821C196.946 367.682 193.438 362.215 188.504 358.247ZM104.069 364.924V365.118C103.725 368.097 102.972 371.014 101.834 373.788C100.578 377.001 98.7189 379.944 96.358 382.458C94.6963 384.334 92.3748 385.495 89.878 385.699H89.6512C88.3714 385.699 86.7676 385.699 85.9252 381.875C85.4535 379.61 85.355 377.284 85.6336 374.987C85.863 372.725 86.3078 370.489 86.962 368.311C88.0563 365.162 89.7508 362.256 91.9516 359.754C93.7777 357.506 96.3453 355.983 99.193 355.459C99.588 355.38 99.9892 355.337 100.392 355.33C100.65 355.288 100.913 355.306 101.163 355.382C101.413 355.458 101.642 355.589 101.834 355.767C102.88 356.87 103.578 358.257 103.842 359.754C104.243 361.446 104.348 363.195 104.15 364.924M156.655 379.509C156.25 379.533 155.844 379.533 155.44 379.509C153.612 379.47 151.8 379.164 150.061 378.601C147.222 377.753 144.458 376.669 141.799 375.36L136.939 372.913L136.583 374.047C137.345 370.984 137.886 367.87 138.203 364.729C138.203 364.243 138.3 363.741 138.349 363.254C138.624 363.53 138.883 363.805 139.175 364.081C141.203 365.934 143.369 367.63 145.655 369.153C147.955 370.774 150.223 372.151 152.491 373.496C154.732 374.732 156.895 376.101 158.971 377.597C159.213 377.778 159.441 377.979 159.652 378.196C158.841 378.954 157.794 379.412 156.687 379.493" fill="black"/>
<path d="M201.723 293.845L180.566 263.2L222.816 211.73L281.865 200.143L274.494 417.009L222.038 412.731L220.726 273.037L201.723 293.845Z" fill="#C90100"/>
<path d="M369.265 334.116L428.055 321.313L416.958 387.401L289.933 405.227C291.013 393.786 291.553 389.016 291.553 390.918C292.363 383.495 293.335 375.862 294.421 368.003C295.506 360.143 297.029 354.454 298.94 350.938C301.673 345.482 307.019 338.292 314.978 329.368C322.938 320.444 333.738 308.824 347.379 294.509C362.186 279.276 373.148 267.44 380.265 259.002C387.382 250.564 390.395 245.232 389.304 243.007C388.494 241.192 386.712 240.381 383.975 240.592C379.579 240.949 373.207 243.974 364.859 249.667C356.335 255.484 348.166 261.805 340.396 268.596C335.216 272.905 330.278 277.499 325.606 282.355L304.335 234.288C317.543 220.185 331.986 207.293 347.492 195.767C363.131 184.153 378.342 177.757 393.128 176.579C397.114 176.292 401.12 176.51 405.051 177.227C435.464 182.629 450.67 196.134 450.67 217.742C450.67 229.507 446.426 242.704 437.937 257.333C429.007 272.527 418.388 286.662 406.282 299.468C394.817 311.887 382.449 323.44 369.281 334.035" fill="#C90100"/>
<path d="M242.661 433.896C251.716 431.403 260.968 429.689 270.315 428.775C286.99 427.262 299.707 429.255 308.466 434.755C312.645 437.233 316.187 440.654 318.808 444.745C321.43 448.837 323.058 453.485 323.564 458.318C324.99 469.532 322.252 481.768 315.351 495.024C308.244 508.497 298.207 520.204 285.98 529.283C274.144 538.551 259.907 544.241 244.945 545.684C241.356 545.966 237.752 546.015 234.156 545.829L242.661 433.896ZM265.341 510.614C270.764 508.62 275.587 505.273 279.354 500.891C283.051 496.709 285.813 491.786 287.454 486.451C288.981 481.89 289.533 477.059 289.074 472.271C288.865 469.742 287.919 467.331 286.353 465.335C285.722 464.538 284.899 463.915 283.961 463.523C283.023 463.132 282 462.986 280.99 463.099C277.848 463.374 274.3 465.465 270.331 469.338L265.341 510.614Z" fill="#C90100"/>
<path d="M329.575 435.387L393.613 425.404L386.696 456.487L357.601 460.052L356.936 465.902L378.094 462.677L373.218 484.134L353.81 487.359L352.838 494.084L386.113 488.072L381.966 521.764L319.854 530.191L329.575 435.387Z" fill="#C90100"/>
<path d="M399.786 421.92L433.903 413.071L423.891 490.908L451.869 481.46L449.617 519.965L390.26 532.573L399.786 421.92Z" fill="#C90100"/>
<path d="M651.098 539.412L595.159 557.643L582.247 477.538L552.698 540.173L527.961 479.385L504.471 555.99L449.488 551.874L513.948 367.192L555.096 432.113L614.469 357.145L651.098 539.412Z" fill="#C90100"/>
<path d="M759.379 346.189C761.179 371.256 761.596 396.402 760.627 421.514C759.682 445.915 754.45 469.959 745.172 492.545C735.862 515.308 720.445 529.721 698.921 535.782C673.962 542.783 657.319 530.655 648.992 499.4C645.234 484.637 643.227 469.483 643.014 454.25C642.625 437.59 642.766 417.83 643.435 394.969C643.77 381.453 643.889 372.886 643.792 369.267L691.161 368.926L690.399 382.037C689.265 405.665 688.558 425.425 688.277 441.318C687.996 457.21 689.001 469.376 691.29 477.813C693.072 484.544 695.589 487.04 698.84 485.301C708.819 480.212 714.273 443.738 715.202 375.879L715.347 366.641L759.379 346.189Z" fill="#C90100"/>
<path d="M868.114 514.082L811.3 455.627L803.557 522.801L754.811 523.044L776.907 367.905L836.216 400.803L838.176 353.385L885.95 345.444L868.114 514.082Z" fill="#C90100"/>
<path d="M895.638 343.613C909 339.93 922.652 337.398 936.446 336.045C961.027 333.884 979.781 336.828 992.709 344.877C998.857 348.544 1004.07 353.596 1007.92 359.63C1011.77 365.665 1014.16 372.516 1014.9 379.639C1016.99 396.169 1012.95 414.184 1002.79 433.685C992.303 453.556 977.493 470.818 959.45 484.199C940.755 498.395 920.565 506.46 898.878 508.394C893.581 508.823 888.26 508.893 882.953 508.605L895.638 343.613ZM929.107 456.746C937.102 453.828 944.218 448.913 949.779 442.469C955.239 436.313 959.316 429.057 961.734 421.19C963.958 414.46 964.742 407.338 964.035 400.285C963.725 396.556 962.328 393.001 960.017 390.059C959.082 388.892 957.866 387.983 956.483 387.416C955.1 386.849 953.596 386.643 952.112 386.818C947.5 387.239 942.257 390.307 936.381 396.023L929.107 456.746Z" fill="#C90100"/>
<path d="M1072.85 499.221C1058.23 500.367 1046.69 496.585 1038.25 487.877C1029.8 479.169 1023.92 467.825 1020.59 453.845C1018.77 446.234 1017.73 438.459 1017.48 430.638C1017.18 423.882 1017.55 417.112 1018.6 410.43C1020.44 400.317 1024.76 388.973 1031.56 376.397C1038.29 363.9 1047.22 352.722 1057.93 343.402C1068.73 334.014 1080.36 328.763 1092.81 327.65C1094.27 327.52 1096.49 327.488 1099.48 327.537C1111.94 328.044 1121.77 332.269 1128.98 340.21C1136.54 348.858 1141.76 359.296 1144.15 370.531C1147.05 382.728 1147.99 395.311 1146.93 407.804C1145.88 421.296 1142.72 434.54 1137.57 447.055C1132.23 460.531 1123.93 472.629 1113.27 482.448C1102.47 492.496 1089 498.071 1072.87 499.173M1084.98 382.004C1078.26 383.172 1072.23 386.85 1068.12 392.295C1063.62 397.721 1060.26 403.999 1058.24 410.754C1057.03 415.314 1056.26 419.982 1055.95 424.691C1055.47 429.896 1055.8 435.146 1056.94 440.248C1059.18 449.702 1064.33 454.38 1072.4 454.283C1075.64 454.158 1078.81 453.348 1081.72 451.907C1084.62 450.465 1087.19 448.425 1089.25 445.92C1093.98 440.559 1097.59 434.306 1099.87 427.527C1102.03 421.677 1103.38 415.559 1103.87 409.344C1104.2 405.172 1103.85 400.974 1102.84 396.914C1101.93 392.505 1099.8 388.439 1096.7 385.181C1093.76 382.231 1089.85 381.21 1084.97 382.118" fill="#C90100"/>
<path d="M362.088 33.1572C373.342 30.251 383.294 27.8904 391.945 26.0753C400.312 24.3188 408.806 23.2349 417.347 22.8341C442.035 21.7537 455.73 29.3435 458.43 45.6033C458.685 46.9277 458.81 48.2738 458.803 49.6224C459.353 60.0806 453.413 71.6732 440.982 84.4002C454.18 91.9629 461.643 100.968 463.371 111.415C463.757 113.728 463.849 116.08 463.646 118.416C462.221 134.892 453.786 148.154 438.342 158.202C422.898 168.249 403.069 173.824 378.855 174.926C370.368 175.253 361.87 175.069 353.405 174.375L362.088 33.1572ZM421.251 119.664C420.83 113.603 417.768 110.702 412.033 110.962C407.713 111.156 402.459 113.02 396.27 116.553L397.015 135.416C398.51 135.51 400.008 135.51 401.503 135.416C406.72 135.417 411.811 133.81 416.083 130.814C417.817 129.542 419.2 127.85 420.101 125.897C421.002 123.944 421.392 121.793 421.235 119.648M416.375 71.0303C416.482 69.6874 416.482 68.338 416.375 66.9951C416.321 66.3357 416.134 65.6942 415.824 65.1098C415.514 64.5253 415.089 64.0103 414.573 63.5961C414.058 63.182 413.463 62.8774 412.826 62.7011C412.188 62.5249 411.522 62.4805 410.867 62.5709C407.792 62.9405 404.811 63.8687 402.07 65.3097L399.915 84.3515C400.912 84.4464 401.916 84.4464 402.912 84.3515C409.23 84.0814 413.761 79.6303 416.504 70.9979" fill="#C90100"/>
<path d="M577.825 20.8083C576.934 40.5124 574.868 60.1457 571.636 79.6032C568.353 98.888 561.531 117.399 551.516 134.201C541.32 151.487 526.74 161.929 507.776 165.527C485.711 169.708 472.627 159.395 468.523 134.59C466.731 122.837 466.486 110.899 467.794 99.0826C469.057 86.1179 471.088 70.717 473.885 52.8797C475.473 42.3675 476.401 35.6961 476.671 32.8655L517.269 35.0371L515.341 45.2144C512.101 63.581 509.601 78.9549 507.84 91.3362C506.08 103.717 505.745 113.252 506.836 119.94C507.722 125.277 509.639 127.351 512.587 126.163C521.627 122.716 529.829 94.5612 537.195 41.6977L538.232 34.5023L577.825 20.8083Z" fill="#C90100"/>
<path d="M659.959 54.1275C659.473 52.8149 657.643 51.3077 654.467 49.6385C650.878 47.7994 647.067 46.4322 643.127 45.5709C639.123 44.5805 635.004 44.1335 630.88 44.242C626.02 44.4526 622.375 45.5871 620.139 47.6938C619.528 48.175 619.044 48.7991 618.731 49.5113C618.417 50.2234 618.283 51.0017 618.341 51.7777C618.503 54.1762 620.123 56.7583 623.201 59.5241C626.279 62.2899 631.328 66.2711 638.348 71.4678C644.37 75.7673 650.126 80.4268 655.585 85.421C661.936 92.0006 665.354 98.9583 665.84 106.294C666.347 113.911 663.869 121.241 658.404 128.286C652.222 135.869 644.265 141.809 635.238 145.577C624.795 150.182 613.564 152.729 602.157 153.08C587.198 153.641 572.29 151.023 558.417 145.399L577.031 108.514C581.374 111.027 585.928 113.158 590.639 114.883C594.885 116.56 599.424 117.37 603.988 117.266C607.786 117.17 611.447 115.826 614.404 113.441C616.656 111.61 617.726 109.697 617.645 107.688C617.279 105.38 616.03 103.305 614.162 101.902C610.956 99.1748 607.574 96.6628 604.036 94.3829C600.926 92.2221 597.756 89.8722 594.527 87.3333C591.536 84.9988 588.74 82.4244 586.168 79.6355C580.195 72.9155 576.955 65.947 576.448 58.73C575.929 50.854 578.543 43.2912 584.289 36.0418C590.742 28.2481 598.985 22.1319 608.313 18.2154C619.121 13.4431 630.751 10.8124 642.56 10.469C653.94 10.0357 665.319 11.3418 676.305 14.3422L659.959 54.1275Z" fill="#C90100"/>
<path d="M786.304 31.7796L756.706 67.7891C753.558 64.3196 750.075 61.1711 746.306 58.3897C743.025 55.8661 738.99 54.5241 734.852 54.5813C733.599 54.6123 732.36 54.859 731.191 55.3105C725.251 57.2553 720.672 61.9063 717.453 69.2638C714.342 75.8219 713.395 83.1995 714.748 90.3314C715.371 93.8731 717.068 97.1376 719.608 99.6822C720.903 100.846 722.421 101.733 724.07 102.29C725.718 102.848 727.463 103.063 729.198 102.923C732.008 102.751 734.772 102.121 737.379 101.06C743.46 98.6936 750.55 93.6266 758.65 85.8586L787.94 119.259C785.364 124.121 780.763 128.853 774.089 133.423C766.918 138.241 759.102 142.022 750.874 144.653C742.427 147.506 733.606 149.095 724.695 149.369C710.169 149.758 698.424 146.301 689.459 138.998C678.745 130.629 671.378 118.701 668.691 105.37C666.46 94.2413 666.809 82.7487 669.712 71.7757C672.632 60.0296 677.595 48.8886 684.373 38.8616C690.756 29.1281 698.964 20.7244 708.543 14.1153C717.314 8.81021 727.271 5.7799 737.509 5.29927C746.875 5.01705 756.133 7.37566 764.223 12.1057C772.818 17.1411 780.334 23.8273 786.336 31.7796" fill="#C90100"/>
<path d="M852.481 0L910.008 111.318L861.618 134.817L849.986 109.552L817.878 111.804L810.895 139.646L766.037 123.181L822.559 5.60724L852.481 0ZM826.917 82.3096L844.899 77.9664L838.29 53.139L826.917 82.3096Z" fill="#C90100"/>
<path d="M940.853 136.097L993.584 18.3613L1025.61 10.4204L1077.08 118.27L1026.45 147.101L1016.12 122.662L996.322 125.142L989.599 153.081L940.853 136.097ZM1008.57 85.016L1009.3 84.7891L1009.04 83.7195L1008.57 85.016Z" fill="black"/>
<path d="M1017.14 12.7864L1063.47 109.843L1023.13 132.807L1013.79 110.718L987.298 113.96L981.207 139.111L944.238 126.308L992.304 18.9446L1017.14 12.7864ZM995.09 87.3333L1010.01 82.7147L1004.81 60.8206L995.09 87.3333Z" fill="#C90100"/>
<path d="M539.009 256.879C538.41 255.437 536.466 253.849 533.145 252.115C529.436 250.229 525.491 248.85 521.416 248.015C517.364 247.06 513.194 246.705 509.039 246.961C504.179 247.334 500.631 248.711 498.558 251.077C497.97 251.666 497.53 252.386 497.274 253.177C497.017 253.969 496.952 254.81 497.083 255.631C497.44 258.257 499.254 261.039 502.527 263.977C505.799 266.916 511.199 271.124 518.727 276.602C525.146 281.161 531.286 286.102 537.114 291.398C544.015 298.399 548.011 305.929 549.102 313.989C550.158 322.51 548.141 331.129 543.416 338.297C537.995 346.709 530.451 353.541 521.546 358.101C511.525 363.45 500.479 366.599 489.145 367.338C473.976 368.398 458.764 365.993 444.66 360.305L460.325 319.191C464.826 321.795 469.548 323.996 474.436 325.77C478.75 327.448 483.373 328.188 487.995 327.942C491.809 327.71 495.408 326.097 498.12 323.404C499.072 322.631 499.818 321.635 500.293 320.504C500.768 319.373 500.956 318.143 500.842 316.922C500.302 314.436 498.895 312.224 496.873 310.683C493.467 307.8 489.873 305.148 486.116 302.742C482.876 300.484 479.512 298.004 476.023 295.303C472.812 292.85 469.805 290.14 467.032 287.2C460.552 280.026 456.772 272.464 455.692 264.512C454.583 255.669 456.725 246.725 461.719 239.344C467.4 230.719 475.212 223.707 484.399 218.99C494.839 213.424 506.352 210.164 518.16 209.428C529.603 208.621 541.102 209.7 552.196 212.621L539.009 256.879Z" fill="#C90100"/>
<path d="M593.944 336.417C582.28 337.13 573.1 334.257 566.404 327.796C559.385 320.932 554.458 312.216 552.196 302.661C550.74 297.092 549.898 291.38 549.685 285.628C549.432 280.68 549.72 275.718 550.544 270.832C552.565 262.038 556.047 253.645 560.847 246.005C566.294 236.807 573.396 228.697 581.794 222.085C589.678 215.567 599.38 211.64 609.577 210.838C610.743 210.838 612.509 210.741 614.907 210.838C624.832 211.303 632.673 214.479 638.429 220.367C644.381 226.617 648.568 234.334 650.563 242.731C652.889 251.656 653.661 260.916 652.847 270.103C652.015 280.016 649.506 289.715 645.428 298.787C641.092 308.768 634.472 317.589 626.101 324.538C617.461 331.799 606.737 335.769 593.928 336.45M603.405 250.672C598.169 251.401 593.386 254.038 589.975 258.078C586.468 261.916 583.808 266.45 582.166 271.383C581.202 274.706 580.599 278.124 580.368 281.577C579.978 285.402 580.246 289.267 581.162 293.002C582.966 299.938 587.08 303.411 593.506 303.422C596.03 303.375 598.519 302.82 600.823 301.79C603.128 300.76 605.201 299.275 606.92 297.426C610.641 293.602 613.521 289.043 615.377 284.04C617.082 279.792 618.147 275.313 618.536 270.751C618.785 267.684 618.5 264.597 617.693 261.627C616.932 258.338 615.245 255.335 612.833 252.973C611.571 251.866 610.063 251.076 608.434 250.67C606.805 250.264 605.103 250.254 603.47 250.64" fill="#C90100"/>
<path d="M746.856 329.902L698.175 280.896L691.776 336.514L650.174 336.255L668.545 207.807L719.284 235.649L720.807 196.35L761.55 190.224L746.856 329.902Z" fill="#C90100"/>
<path d="M829.623 191.731L874.87 296.551L831.696 320.86L822.738 296.94L794.76 300.181L787.47 327.131L749.027 312.903L803.298 198.068L829.623 191.731ZM803.784 271.594L819.644 266.732L814.962 243.201L803.784 271.594Z" fill="#C90100"/>
<path d="M875.777 189.463C886.436 186.722 897.307 184.884 908.274 183.969C927.855 182.478 942.813 184.92 953.148 191.294C958.021 194.12 962.169 198.044 965.262 202.753C968.355 207.461 970.309 212.827 970.968 218.423C972.686 231.247 969.521 245.162 961.475 260.169C953.117 275.54 941.359 288.799 927.099 298.933C913.077 309.424 896.373 315.728 878.92 317.116C874.696 317.394 870.459 317.394 866.235 317.116L875.777 189.463ZM902.782 277.379C909.095 275.223 914.75 271.485 919.209 266.521C923.529 261.82 926.765 256.227 928.686 250.137C930.438 244.926 931.041 239.398 930.452 233.932C930.177 231.018 929.05 228.251 927.212 225.974C926.457 225.049 925.485 224.324 924.383 223.863C923.281 223.403 922.083 223.221 920.894 223.333C917.222 223.603 913.053 225.937 908.388 230.334L902.782 277.379Z" fill="#C90100"/>
<path d="M1010.09 309.338C998.352 310.094 989.48 306.998 983.475 300.052C977.47 293.105 973.723 284.089 972.232 273.004C971.418 266.924 971.233 260.777 971.681 254.659C971.998 249.271 972.855 243.929 974.241 238.712C977.291 229.197 981.723 220.182 987.395 211.957C993.829 202.129 1001.84 193.429 1011.1 186.205C1020.43 178.88 1030.12 174.84 1040.16 174.083C1041.34 173.986 1043.11 173.986 1045.49 174.083C1055.37 174.58 1062.85 178.005 1067.93 184.358C1073.27 191.347 1076.57 199.675 1077.48 208.424C1078.79 218.237 1078.5 228.198 1076.63 237.918C1074.62 248.699 1071.02 259.117 1065.92 268.823C1060.48 279.491 1052.89 288.916 1043.63 296.502C1034.16 304.343 1022.37 308.853 1010.09 309.338ZM1029.42 216.964C1023.88 217.87 1018.82 220.691 1015.15 224.937C1011.17 229.108 1008 233.982 1005.8 239.312C1004.45 242.876 1003.45 246.56 1002.8 250.316C1001.99 254.364 1001.82 258.515 1002.3 262.616C1003.3 270.082 1007.02 273.825 1013.45 273.847C1018.82 273.626 1023.89 271.297 1027.56 267.364C1031.73 263.195 1035.11 258.302 1037.53 252.925C1039.72 248.375 1041.29 243.559 1042.22 238.599C1042.82 235.358 1042.89 232.042 1042.43 228.778C1042.07 225.371 1040.71 222.148 1038.51 219.525C1036.41 217.18 1033.38 216.343 1029.42 217.013" fill="#C90100"/>
<path d="M1166.7 265.857L1143.27 295.562L1113.35 269.163L1110.45 296.713L1078.29 295.206L1087.61 169.821C1098.6 167.434 1109.74 165.766 1120.95 164.83C1138.52 163.49 1151.73 164.905 1160.57 169.076C1169.42 173.246 1174.39 179.437 1175.49 187.648C1176.66 196.237 1173.87 206.009 1167.12 216.964C1160.16 228.156 1151.2 237.977 1140.7 245.94L1166.7 265.857ZM1117.47 203.221L1113.58 229.151C1118.03 227.745 1122.15 225.445 1125.68 222.393C1128.86 219.723 1131.53 216.487 1133.54 212.848C1135.11 210.212 1135.85 207.161 1135.66 204.096C1135.19 200.607 1132.87 199.024 1128.68 199.348C1124.75 199.919 1120.97 201.234 1117.53 203.221" fill="#C90100"/>
<path d="M1181.96 172.204L1257.18 159.871L1249.27 201.212L1215.09 205.507L1214.36 213.302L1239.19 209.331L1233.64 237.87L1210.83 241.856L1209.74 250.818L1248.83 243.315L1244.18 288.173L1171.22 298.447L1181.96 172.204Z" fill="#C90100"/>
<path d="M1329.96 193.595C1329.46 192.38 1327.81 191.035 1324.99 189.544C1321.83 187.951 1318.47 186.78 1315.01 186.059C1311.56 185.251 1308.01 184.951 1304.48 185.168C1300.3 185.476 1297.32 186.659 1295.57 188.668C1295.07 189.167 1294.69 189.779 1294.47 190.452C1294.25 191.126 1294.19 191.842 1294.31 192.542C1294.61 194.778 1296.15 197.144 1298.94 199.64C1301.73 202.136 1306.3 205.717 1312.68 210.384C1318.14 214.264 1323.36 218.463 1328.33 222.96C1334.19 228.924 1337.58 235.331 1338.5 242.18C1339.41 249.454 1337.69 256.812 1333.64 262.924C1329.04 270.049 1322.64 275.834 1315.09 279.697C1306.56 284.268 1297.16 286.96 1287.5 287.589C1274.6 288.492 1261.66 286.447 1249.66 281.609L1262.99 246.637C1266.83 248.855 1270.86 250.726 1275.03 252.228C1278.7 253.654 1282.63 254.289 1286.56 254.092C1289.81 253.884 1292.87 252.509 1295.18 250.218C1295.97 249.56 1296.59 248.722 1297 247.776C1297.4 246.829 1297.57 245.8 1297.5 244.773C1297.06 242.645 1295.88 240.742 1294.16 239.409C1291.27 236.952 1288.22 234.694 1285.02 232.651C1282.22 230.739 1279.35 228.632 1276.44 226.331C1273.7 224.225 1271.14 221.9 1268.77 219.379C1263.63 214.11 1260.23 207.38 1259.05 200.11C1258.12 192.584 1259.94 184.975 1264.17 178.686C1269 171.364 1275.63 165.405 1283.42 161.378C1292.3 156.654 1302.1 153.891 1312.14 153.275C1321.89 152.561 1331.69 153.465 1341.14 155.949L1329.96 193.595Z" fill="#C90100"/>
<path d="M680.274 198.959C681.376 197.744 745.496 183.953 745.496 183.953L750.21 162.269L681.538 172.528L680.274 198.959Z" fill="#C90100"/>
<path d="M0.858605 324.522L29.225 316.97L25.8229 378.407L48.9567 370.482L49.5561 400.836L0 411.791L0.858605 324.522Z" fill="#C90100"/>
<path d="M80.2716 403.785C71.8475 404.585 65.2757 402.651 60.556 397.984C55.6286 392.919 52.299 386.517 50.9818 379.574C50.0661 375.444 49.5937 371.228 49.5724 366.998C49.5071 363.29 49.8329 359.585 50.5444 355.946C52.2538 349.317 54.9867 342.997 58.6444 337.212C62.7584 330.235 68.0537 324.028 74.2937 318.867C80.0047 313.889 87.0857 310.754 94.6086 309.872C95.885 309.757 97.1666 309.708 98.4481 309.726C105.598 309.856 111.181 312.044 115.199 316.29C119.378 320.9 122.218 326.566 123.412 332.674C124.885 339.355 125.219 346.236 124.401 353.029C123.55 360.485 121.509 367.756 118.358 374.566C114.99 382.09 110.013 388.784 103.778 394.175C97.204 399.864 88.9468 403.24 80.2716 403.785ZM89.1816 339.659C85.3098 340.373 81.8153 342.434 79.3157 345.477C76.6683 348.439 74.6362 351.899 73.3379 355.654C72.5692 358.14 72.0535 360.697 71.7989 363.287C71.4286 366.115 71.5326 368.985 72.1067 371.779C73.1867 376.9 76.0703 379.395 80.7576 379.266C82.6271 379.158 84.4568 378.682 86.1417 377.864C87.8265 377.046 89.3331 375.903 90.5748 374.501C93.3763 371.563 95.5775 368.106 97.0548 364.324C98.3805 361.139 99.253 357.785 99.6469 354.357C99.8864 352.08 99.7385 349.779 99.2095 347.551C98.7595 345.151 97.5964 342.943 95.8722 341.214C94.9783 340.413 93.8956 339.851 92.7254 339.581C91.5553 339.312 90.3359 339.344 89.1816 339.675" fill="#C90100"/>
<path d="M175.949 330.324C174.969 329.079 173.645 328.15 172.142 327.65C169.775 326.618 167.288 325.889 164.739 325.478C162.226 324.99 159.657 324.859 157.108 325.089C154.759 325.102 152.51 326.046 150.855 327.715C150.523 328.069 150.286 328.501 150.164 328.971C150.042 329.441 150.04 329.934 150.159 330.405C150.821 332.376 152.135 334.062 153.885 335.186C156.039 336.806 159.538 339.205 164.398 342.284C168.533 344.833 172.524 347.609 176.354 350.597C180.476 353.9 183.42 358.448 184.746 363.562C185.809 368.484 184.97 373.625 182.397 377.953C179.411 383.048 175.078 387.22 169.874 390.01C163.891 393.369 157.267 395.429 150.434 396.055C141.096 396.97 131.67 395.864 122.797 392.814L130.524 368.375C133.416 369.817 136.424 371.015 139.515 371.957C142.226 372.861 145.091 373.208 147.939 372.978C150.222 372.788 152.358 371.774 153.949 370.125C154.484 369.658 154.889 369.06 155.125 368.39C155.361 367.72 155.419 367 155.294 366.301C154.828 364.828 153.866 363.562 152.572 362.719C150.334 361.095 147.997 359.612 145.574 358.279C143.414 357.015 141.254 355.627 139.094 354.114C137.008 352.721 135.031 351.172 133.181 349.479C129.227 346.081 126.402 341.559 125.081 336.514C123.999 331.403 124.921 326.072 127.657 321.621C130.795 316.416 135.27 312.146 140.617 309.256C146.86 305.761 153.773 303.629 160.899 303.001C167.939 302.298 175.045 302.702 181.959 304.2L175.949 330.324Z" fill="#C90100"/>
</g>
</svg>
