<svg width="431" height="108" viewBox="0 0 431 108" fill="none" xmlns="http://www.w3.org/2000/svg">
<path d="M5.32412 108L0 0L431 1.35211L427.07 89.2394L5.32412 108Z" fill="white"/>
<path d="M12.1265 97L7 12L422 13.0642L418.216 82.2347L12.1265 97Z" fill="#E80000"/>
<path d="M376.747 29C377.583 29 378.37 29.0995 379.106 29.2986C383.146 30.453 385.107 34.4735 384.987 41.3601C384.968 42.3951 384.49 43.032 383.554 43.2709L379.196 44.4054C378.977 44.4651 378.728 44.485 378.449 44.4651C377.593 44.3656 377.145 43.9277 377.106 43.1514C376.966 39.8475 376.339 37.469 375.225 36.016C375.085 36.016 374.956 36.0459 374.837 36.1056C374.359 36.3842 373.802 37.061 373.165 38.1357C371.851 40.3052 371.194 42.3354 371.194 44.2262C371.194 45.1617 371.373 45.8782 371.732 46.3758C372.13 46.8933 373.045 47.3511 374.478 47.7492L375.553 48.0477C376.648 48.3463 377.524 48.7245 378.18 49.1822C379.892 50.3964 380.748 52.7251 380.748 56.1684C380.748 57.9 380.439 59.6714 379.822 61.4826C378.688 64.8464 376.817 67.7224 374.21 70.1109C371.483 72.5988 368.706 73.8428 365.88 73.8428C364.407 73.8428 363.094 73.594 361.939 73.0964C358.595 71.6434 356.943 68.2499 356.983 62.9157C356.983 62.6968 357.003 62.4679 357.043 62.229C357.222 61.0547 357.68 60.3481 358.416 60.1093L363.014 58.4971C363.432 58.3578 363.85 58.2981 364.268 58.318C364.984 58.3777 365.343 58.736 365.343 59.3928C365.223 64.1099 365.522 66.8964 366.238 67.7523C366.616 67.7523 366.955 67.6926 367.253 67.5731C367.93 67.2348 368.597 66.6476 369.254 65.8117C370.786 63.8611 371.553 61.5424 371.553 58.8554C371.553 57.7408 371.473 56.9247 371.314 56.4072C370.955 55.3523 369.94 54.6159 368.268 54.1979L367.313 53.9591C366.796 53.8198 366.258 53.6307 365.701 53.3918C363.113 52.1777 361.82 50.1774 361.82 47.3909C361.82 45.8583 362.078 44.2362 362.596 42.5245C363.651 39.0414 365.402 36.016 367.85 33.4485C370.657 30.4828 373.623 29 376.747 29Z" fill="#010101"/>
<path d="M342.742 45.8981H352.923C354.018 45.918 354.436 46.5549 354.177 47.8088L353.46 51.3317C353.401 51.5706 353.301 51.8094 353.162 52.0483C352.724 52.6852 352.187 53.0036 351.55 53.0036H340.951L337.667 65.7817H349.101C350.276 65.8016 350.734 66.4386 350.475 67.6925L349.699 71.2154C349.639 71.4543 349.529 71.6931 349.37 71.9319C348.912 72.5689 348.345 72.8873 347.668 72.8873H329.337C329.078 72.8873 328.84 72.8276 328.621 72.7082C328.103 72.3698 327.944 71.8125 328.143 71.0363L336.891 36.7623H334.771C334.612 36.7623 334.462 36.7524 334.323 36.7325C333.527 36.5931 333.298 35.8866 333.636 34.6127L334.592 30.851C334.671 30.4927 334.761 30.2041 334.86 29.9851C334.98 29.7662 335.288 29.6567 335.786 29.6567H357.939C359.113 29.6766 359.571 30.3136 359.312 31.5675L358.536 35.0904C358.476 35.3293 358.367 35.5681 358.207 35.8069C357.75 36.4439 357.182 36.7623 356.506 36.7623H345.071L342.742 45.8981Z" fill="#010101"/>
<path d="M333.816 29.6567C334.99 29.6567 335.448 30.2937 335.19 31.5675L334.413 35.0904C334.354 35.3293 334.244 35.5681 334.085 35.8069C333.627 36.4439 333.06 36.7623 332.383 36.7623H323.815L314.948 71.5737C314.709 72.4295 314.112 72.8674 313.156 72.8873H308.021C307.663 72.8873 307.344 72.748 307.066 72.4693C306.787 72.1907 306.707 71.8125 306.827 71.3348L315.634 36.7623H306.528C306.389 36.7623 306.24 36.7524 306.081 36.7325C305.304 36.5931 305.075 35.8866 305.394 34.6127L306.349 30.851C306.429 30.5524 306.518 30.3136 306.618 30.1344C306.837 29.816 307.344 29.6567 308.141 29.6567H333.816Z" fill="#010101"/>
<path d="M276.434 30.9704C276.673 30.1145 277.27 29.6766 278.225 29.6567H283.151C283.549 29.6567 283.918 29.7961 284.256 30.0747C284.336 30.1344 284.415 30.214 284.495 30.3136C284.594 30.4529 284.734 30.851 284.913 31.5078L290.108 54.377L296.079 30.9704C296.317 30.1145 296.915 29.6766 297.87 29.6567H302.945C303.184 29.6567 303.413 29.7164 303.632 29.8359C304.169 30.1742 304.339 30.7315 304.14 31.5078L293.929 71.5737C293.69 72.4295 293.093 72.8674 292.138 72.8873H287.062C286.644 72.8873 286.346 72.7679 286.167 72.5291C286.007 72.2902 285.888 72.0116 285.808 71.6931L280.375 47.6595L274.284 71.5737C274.045 72.4295 273.448 72.8674 272.493 72.8873H267.417C267.179 72.8873 266.95 72.8276 266.731 72.7082C266.193 72.3698 266.024 71.8125 266.223 71.0363L276.434 30.9704Z" fill="#010101"/>
<path d="M249.534 54.1383H256.013L257.057 38.7927L249.534 54.1383ZM246.041 61.2439L240.906 71.753C240.448 72.6287 239.692 73.0268 238.637 72.9472L233.979 72.7681C233.959 72.7681 233.92 72.7681 233.86 72.7681C232.586 72.6686 232.188 71.9321 232.666 70.5588L252.609 32.1648C252.748 31.8861 252.918 31.6075 253.117 31.3288C253.893 30.2938 254.818 29.7763 255.893 29.7763L262.76 29.7166C263.138 29.6967 263.486 29.7564 263.805 29.8958C264.72 30.3137 265.148 31.2094 265.089 32.5827L262.879 71.5739C262.76 72.4098 262.163 72.8477 261.088 72.8875H256.251C256.112 72.8875 255.973 72.8775 255.833 72.8576C255.077 72.6984 254.759 72.171 254.878 71.2753L255.535 61.2439H246.041Z" fill="#010101"/>
<path d="M225.829 49.2717L228.038 49.1224C228.217 49.1025 228.406 49.0826 228.605 49.0627C230.457 48.7841 231.88 47.7292 232.875 45.8981C232.974 45.5796 233.094 45.1915 233.233 44.7337C233.95 42.0268 234.308 39.8275 234.308 38.1357C234.308 37.9167 234.218 37.6978 234.039 37.4788C233.641 37.0012 233.134 36.7623 232.517 36.7623C232.298 36.7424 231.73 36.7325 230.815 36.7325C230.058 36.7325 229.471 36.7225 229.053 36.7026L225.829 49.2717ZM220.873 36.6429H218.843C218.564 36.6429 218.305 36.5732 218.067 36.4339C217.549 36.1155 217.39 35.6278 217.589 34.971L218.664 30.851C218.703 30.6917 218.773 30.5325 218.873 30.3733C219.191 29.8956 219.579 29.6567 220.037 29.6567H232.755C234.467 29.6567 235.99 29.9155 237.323 30.433C240.329 31.6272 241.831 33.9559 241.831 37.4191C241.831 39.6284 241.364 42.196 240.428 45.1218C239.373 48.4059 237.781 50.8939 235.651 52.5857C233.402 54.4566 229.601 55.4219 224.247 55.4816L220.156 71.5737C219.918 72.4295 219.32 72.8674 218.365 72.8873H213.29C213.031 72.8873 212.802 72.8276 212.603 72.7082C212.086 72.3698 211.916 71.8125 212.095 71.0363L220.873 36.6429Z" fill="#010101"/>
<path d="M205.826 30.9704C206.064 30.1145 206.661 29.6766 207.617 29.6567H212.692C212.951 29.6567 213.18 29.7164 213.379 29.8359C213.896 30.1742 214.066 30.7315 213.886 31.5078L203.676 71.5737C203.437 72.4295 202.84 72.8674 201.885 72.8873H196.809C196.55 72.8873 196.322 72.8276 196.123 72.7082C195.605 72.3698 195.436 71.8125 195.615 71.0363L205.826 30.9704Z" fill="#010101"/>
<path d="M197.824 41.0019C197.884 41.7185 197.476 42.2559 196.6 42.6141L191.346 44.1666C191.067 44.2462 190.749 44.2263 190.39 44.1069C189.793 43.868 189.475 43.4302 189.435 42.7933C189.395 42.3355 189.355 41.9175 189.316 41.5393C189.156 40.1262 188.778 38.6732 188.181 37.1804C187.942 37.1008 187.703 37.061 187.465 37.061C185.016 37.0809 182.628 41.5393 180.299 50.4362C179.244 54.4767 178.717 57.9399 178.717 60.8259C178.717 64.0304 179.225 65.7819 180.24 66.0804H180.777C181.135 65.8217 181.484 65.5231 181.822 65.1848C182.638 64.3289 183.743 62.5575 185.136 59.8705C185.415 59.3331 185.663 58.945 185.882 58.7062C186.26 58.3081 186.828 58.2782 187.584 58.6166L192.48 60.7662C192.659 60.8458 192.809 60.9752 192.928 61.1543C193.247 61.6917 193.157 62.3585 192.659 63.1546C190.55 66.5382 188.639 68.9665 186.927 70.4393C184.658 72.3899 181.912 73.3652 178.687 73.3652C177.493 73.3652 176.219 72.9472 174.866 72.1112C173.453 71.2156 172.338 69.9019 171.522 68.1703C170.586 66.1003 170.119 63.5228 170.119 60.4378C170.119 57.0542 170.686 53.0834 171.82 48.5255C173.214 42.9724 175.154 38.5836 177.642 35.3593C180.827 31.2392 184.26 29.1792 187.942 29.1792C191.465 29.1792 194.023 30.4729 195.615 33.0604C196.809 34.991 197.546 37.6382 197.824 41.0019Z" fill="#010101"/>
<path d="M163.371 30.9704C163.61 30.1145 164.207 29.6766 165.163 29.6567H170.238C170.497 29.6567 170.726 29.7164 170.925 29.8359C171.442 30.1742 171.612 30.7315 171.432 31.5078L161.222 71.5737C160.983 72.4295 160.386 72.8674 159.431 72.8873H154.355C154.096 72.8873 153.867 72.8276 153.668 72.7082C153.151 72.3698 152.982 71.8125 153.161 71.0363L163.371 30.9704Z" fill="#010101"/>
<path d="M158.864 29.6567C160.038 29.6567 160.496 30.2937 160.237 31.5675L159.461 35.0904C159.401 35.3293 159.291 35.5681 159.132 35.8069C158.674 36.4439 158.107 36.7623 157.43 36.7623H148.862L139.995 71.5737C139.756 72.4295 139.159 72.8674 138.204 72.8873H133.068C132.71 72.8873 132.392 72.748 132.113 72.4693C131.834 72.1907 131.755 71.8125 131.874 71.3348L140.682 36.7623H131.576C131.436 36.7623 131.287 36.7524 131.128 36.7325C130.352 36.5931 130.123 35.8866 130.441 34.6127L131.397 30.851C131.476 30.5524 131.566 30.3136 131.665 30.1344C131.884 29.816 132.392 29.6567 133.188 29.6567H158.864Z" fill="#010101"/>
<path d="M111.871 49.4509L114.11 49.1224C114.687 49.0428 115.016 48.9831 115.095 48.9433C116.727 48.386 117.802 47.6993 118.32 46.8833C118.817 46.0473 119.146 45.3308 119.305 44.7337C120.021 42.0666 120.38 39.8673 120.38 38.1357C120.38 37.8172 120.22 37.5286 119.902 37.2699C119.623 37.031 119.285 36.8718 118.887 36.7922C118.648 36.7524 117.981 36.7225 116.887 36.7026C116.349 36.7026 115.762 36.7026 115.125 36.7026L111.871 49.4509ZM106.945 36.6429H104.915C104.636 36.6429 104.377 36.5732 104.138 36.4339C103.621 36.1155 103.462 35.6278 103.661 34.971L104.735 30.851C104.775 30.6917 104.845 30.5325 104.944 30.3733C105.263 29.8956 105.651 29.6567 106.109 29.6567H118.827C120.539 29.6567 122.061 29.9155 123.395 30.433C126.4 31.6272 127.903 33.9559 127.903 37.4191C127.903 39.7877 127.435 42.3552 126.5 45.1218C125.485 48.1273 124.36 50.1773 123.126 51.272C121.793 52.5857 120.509 53.5609 119.275 54.1979L121.693 70.3795C121.733 70.6979 121.753 70.9965 121.753 71.2751C121.693 72.3499 121.136 72.8873 120.081 72.8873H115.364C115.165 72.8873 114.966 72.8475 114.767 72.7679C113.931 72.3897 113.413 71.4344 113.214 69.9018L111.423 55.4816H110.318L106.228 71.5737C105.989 72.4295 105.392 72.8674 104.437 72.8873H99.3615C99.1027 72.8873 98.8738 72.8276 98.6748 72.7082C98.1573 72.3698 97.9881 71.8125 98.1672 71.0363L106.945 36.6429Z" fill="#010101"/>
<path d="M81.508 54.1383H87.9867L89.0316 38.7927L81.508 54.1383ZM78.015 61.2439L72.8798 71.753C72.4221 72.6287 71.6657 73.0268 70.6108 72.9472L65.9534 72.7681C65.9335 72.7681 65.8937 72.7681 65.834 72.7681C64.5601 72.6686 64.1621 71.9321 64.6398 70.5588L84.5831 32.1648C84.7225 31.8861 84.8916 31.6075 85.0907 31.3288C85.8669 30.2938 86.7924 29.7763 87.8672 29.7763L94.734 29.7166C95.1121 29.6967 95.4605 29.7564 95.7789 29.8958C96.6945 30.3137 97.1224 31.2094 97.0627 32.5827L94.8534 71.5739C94.734 72.4098 94.1369 72.8477 93.0621 72.8875H88.2255C88.0862 72.8875 87.9468 72.8775 87.8075 72.8576C87.0512 72.6984 86.7327 72.171 86.8522 71.2753L87.509 61.2439H78.015Z" fill="#010101"/>
<path d="M57.8026 49.2717L60.0119 49.1224C60.191 49.1025 60.3801 49.0826 60.5791 49.0627C62.4302 48.7841 63.8533 47.7292 64.8484 45.8981C64.948 45.5796 65.0674 45.1915 65.2067 44.7337C65.9232 42.0268 66.2815 39.8275 66.2815 38.1357C66.2815 37.9167 66.1919 37.6978 66.0128 37.4788C65.6147 37.0012 65.1072 36.7623 64.4902 36.7623C64.2712 36.7424 63.704 36.7325 62.7884 36.7325C62.0321 36.7325 61.4449 36.7225 61.0269 36.7026L57.8026 49.2717ZM52.8466 36.6429H50.8164C50.5378 36.6429 50.279 36.5732 50.0402 36.4339C49.5227 36.1155 49.3634 35.6278 49.5625 34.971L50.6373 30.851C50.6771 30.6917 50.7467 30.5325 50.8463 30.3733C51.1647 29.8956 51.5528 29.6567 52.0106 29.6567H64.729C66.4407 29.6567 67.9633 29.9155 69.2969 30.433C72.3023 31.6272 73.805 33.9559 73.805 37.4191C73.805 39.6284 73.3373 42.196 72.4018 45.1218C71.347 48.4059 69.7547 50.8939 67.625 52.5857C65.3759 54.4566 61.5743 55.4219 56.2202 55.4816L52.13 71.5737C51.8912 72.4295 51.2941 72.8674 50.3387 72.8873H45.2633C45.0046 72.8873 44.7757 72.8276 44.5766 72.7082C44.0591 72.3698 43.89 71.8125 44.0691 71.0363L52.8466 36.6429Z" fill="#010101"/>
<path d="M374.747 28C375.583 28 376.37 28.0995 377.106 28.2986C381.146 29.453 383.107 33.4735 382.987 40.3601C382.968 41.3951 382.49 42.032 381.554 42.2709L377.196 43.4054C376.977 43.4651 376.728 43.485 376.449 43.4651C375.593 43.3656 375.145 42.9277 375.106 42.1514C374.966 38.8475 374.339 36.469 373.225 35.016C373.085 35.016 372.956 35.0459 372.837 35.1056C372.359 35.3842 371.802 36.061 371.165 37.1357C369.851 39.3052 369.194 41.3354 369.194 43.2262C369.194 44.1617 369.373 44.8782 369.732 45.3758C370.13 45.8933 371.045 46.3511 372.478 46.7492L373.553 47.0477C374.648 47.3463 375.524 47.7245 376.18 48.1822C377.892 49.3964 378.748 51.7251 378.748 55.1684C378.748 56.9 378.439 58.6714 377.822 60.4826C376.688 63.8464 374.817 66.7224 372.21 69.1109C369.483 71.5988 366.706 72.8428 363.88 72.8428C362.407 72.8428 361.094 72.594 359.939 72.0964C356.595 70.6434 354.943 67.2499 354.983 61.9157C354.983 61.6968 355.003 61.4679 355.043 61.229C355.222 60.0547 355.68 59.3481 356.416 59.1093L361.014 57.4971C361.432 57.3578 361.85 57.2981 362.268 57.318C362.984 57.3777 363.343 57.736 363.343 58.3928C363.223 63.1099 363.522 65.8964 364.238 66.7523C364.616 66.7523 364.955 66.6926 365.253 66.5731C365.93 66.2348 366.597 65.6476 367.254 64.8117C368.786 62.8611 369.553 60.5424 369.553 57.8554C369.553 56.7408 369.473 55.9247 369.314 55.4072C368.955 54.3523 367.94 53.6159 366.268 53.1979L365.313 52.9591C364.796 52.8198 364.258 52.6307 363.701 52.3918C361.113 51.1777 359.82 49.1774 359.82 46.3909C359.82 44.8583 360.078 43.2362 360.596 41.5245C361.651 38.0414 363.402 35.016 365.85 32.4485C368.657 29.4828 371.623 28 374.747 28Z" fill="#FFEB00"/>
<path d="M340.742 44.8981H350.923C352.018 44.918 352.436 45.5549 352.177 46.8088L351.46 50.3317C351.401 50.5706 351.301 50.8094 351.162 51.0483C350.724 51.6852 350.187 52.0036 349.55 52.0036H338.951L335.667 64.7817H347.101C348.276 64.8016 348.734 65.4386 348.475 66.6925L347.699 70.2154C347.639 70.4543 347.529 70.6931 347.37 70.9319C346.912 71.5689 346.345 71.8873 345.668 71.8873H327.337C327.078 71.8873 326.84 71.8276 326.621 71.7082C326.103 71.3698 325.944 70.8125 326.143 70.0363L334.891 35.7623H332.771C332.612 35.7623 332.462 35.7524 332.323 35.7325C331.527 35.5931 331.298 34.8866 331.636 33.6127L332.592 29.851C332.671 29.4927 332.761 29.2041 332.86 28.9851C332.98 28.7662 333.288 28.6567 333.786 28.6567H355.939C357.113 28.6766 357.571 29.3136 357.312 30.5675L356.536 34.0904C356.476 34.3293 356.367 34.5681 356.207 34.8069C355.75 35.4439 355.182 35.7623 354.506 35.7623H343.071L340.742 44.8981Z" fill="#FFEB00"/>
<path d="M331.816 28.6567C332.99 28.6567 333.448 29.2937 333.19 30.5675L332.413 34.0904C332.354 34.3293 332.244 34.5681 332.085 34.8069C331.627 35.4439 331.06 35.7623 330.383 35.7623H321.815L312.948 70.5737C312.709 71.4295 312.112 71.8674 311.156 71.8873H306.021C305.663 71.8873 305.344 71.748 305.066 71.4693C304.787 71.1907 304.707 70.8125 304.827 70.3348L313.634 35.7623H304.528C304.389 35.7623 304.24 35.7524 304.081 35.7325C303.304 35.5931 303.075 34.8866 303.394 33.6127L304.349 29.851C304.429 29.5524 304.518 29.3136 304.618 29.1344C304.837 28.816 305.344 28.6567 306.141 28.6567H331.816Z" fill="#FFEB00"/>
<path d="M274.434 29.9704C274.673 29.1145 275.27 28.6766 276.225 28.6567H281.151C281.549 28.6567 281.918 28.7961 282.256 29.0747C282.336 29.1344 282.415 29.214 282.495 29.3136C282.594 29.4529 282.734 29.851 282.913 30.5078L288.108 53.377L294.079 29.9704C294.317 29.1145 294.915 28.6766 295.87 28.6567H300.945C301.184 28.6567 301.413 28.7164 301.632 28.8359C302.169 29.1742 302.339 29.7315 302.14 30.5078L291.929 70.5737C291.69 71.4295 291.093 71.8674 290.138 71.8873H285.062C284.644 71.8873 284.346 71.7679 284.167 71.5291C284.007 71.2902 283.888 71.0116 283.808 70.6931L278.375 46.6595L272.284 70.5737C272.045 71.4295 271.448 71.8674 270.493 71.8873H265.417C265.179 71.8873 264.95 71.8276 264.731 71.7082C264.193 71.3698 264.024 70.8125 264.223 70.0363L274.434 29.9704Z" fill="#FFEB00"/>
<path d="M247.534 53.1383H254.013L255.057 37.7927L247.534 53.1383ZM244.041 60.2439L238.906 70.753C238.448 71.6287 237.692 72.0268 236.637 71.9472L231.979 71.7681C231.959 71.7681 231.92 71.7681 231.86 71.7681C230.586 71.6686 230.188 70.9321 230.666 69.5588L250.609 31.1648C250.748 30.8861 250.918 30.6075 251.117 30.3288C251.893 29.2938 252.818 28.7763 253.893 28.7763L260.76 28.7166C261.138 28.6967 261.486 28.7564 261.805 28.8958C262.72 29.3137 263.148 30.2094 263.089 31.5827L260.879 70.5739C260.76 71.4098 260.163 71.8477 259.088 71.8875H254.251C254.112 71.8875 253.973 71.8775 253.833 71.8576C253.077 71.6984 252.759 71.171 252.878 70.2753L253.535 60.2439H244.041Z" fill="#FFEB00"/>
<path d="M223.829 48.2717L226.038 48.1224C226.217 48.1025 226.406 48.0826 226.605 48.0627C228.457 47.7841 229.88 46.7292 230.875 44.8981C230.974 44.5796 231.094 44.1915 231.233 43.7337C231.95 41.0268 232.308 38.8275 232.308 37.1357C232.308 36.9167 232.218 36.6978 232.039 36.4788C231.641 36.0012 231.134 35.7623 230.517 35.7623C230.298 35.7424 229.73 35.7325 228.815 35.7325C228.058 35.7325 227.471 35.7225 227.053 35.7026L223.829 48.2717ZM218.873 35.6429H216.843C216.564 35.6429 216.305 35.5732 216.067 35.4339C215.549 35.1155 215.39 34.6278 215.589 33.971L216.664 29.851C216.703 29.6917 216.773 29.5325 216.873 29.3733C217.191 28.8956 217.579 28.6567 218.037 28.6567H230.755C232.467 28.6567 233.99 28.9155 235.323 29.433C238.329 30.6272 239.831 32.9559 239.831 36.4191C239.831 38.6284 239.364 41.196 238.428 44.1218C237.373 47.4059 235.781 49.8939 233.651 51.5857C231.402 53.4566 227.601 54.4219 222.247 54.4816L218.156 70.5737C217.918 71.4295 217.32 71.8674 216.365 71.8873H211.29C211.031 71.8873 210.802 71.8276 210.603 71.7082C210.086 71.3698 209.916 70.8125 210.095 70.0363L218.873 35.6429Z" fill="#FFEB00"/>
<path d="M203.826 29.9704C204.064 29.1145 204.661 28.6766 205.617 28.6567H210.692C210.951 28.6567 211.18 28.7164 211.379 28.8359C211.896 29.1742 212.066 29.7315 211.886 30.5078L201.676 70.5737C201.437 71.4295 200.84 71.8674 199.885 71.8873H194.809C194.55 71.8873 194.322 71.8276 194.123 71.7082C193.605 71.3698 193.436 70.8125 193.615 70.0363L203.826 29.9704Z" fill="#FFEB00"/>
<path d="M195.824 40.0019C195.884 40.7185 195.476 41.2559 194.6 41.6141L189.346 43.1666C189.067 43.2462 188.749 43.2263 188.39 43.1069C187.793 42.868 187.475 42.4302 187.435 41.7933C187.395 41.3355 187.355 40.9175 187.316 40.5393C187.156 39.1262 186.778 37.6732 186.181 36.1804C185.942 36.1008 185.703 36.061 185.465 36.061C183.016 36.0809 180.628 40.5393 178.299 49.4362C177.244 53.4767 176.717 56.9399 176.717 59.8259C176.717 63.0304 177.225 64.7819 178.24 65.0804H178.777C179.135 64.8217 179.484 64.5231 179.822 64.1848C180.638 63.3289 181.743 61.5575 183.136 58.8705C183.415 58.3331 183.663 57.945 183.882 57.7062C184.26 57.3081 184.828 57.2782 185.584 57.6166L190.48 59.7662C190.659 59.8458 190.809 59.9752 190.928 60.1543C191.247 60.6917 191.157 61.3585 190.659 62.1546C188.55 65.5382 186.639 67.9665 184.927 69.4393C182.658 71.3899 179.912 72.3652 176.687 72.3652C175.493 72.3652 174.219 71.9472 172.866 71.1112C171.453 70.2156 170.338 68.9019 169.522 67.1703C168.586 65.1003 168.119 62.5228 168.119 59.4378C168.119 56.0542 168.686 52.0834 169.82 47.5255C171.214 41.9724 173.154 37.5836 175.642 34.3593C178.827 30.2392 182.26 28.1792 185.942 28.1792C189.465 28.1792 192.023 29.4729 193.615 32.0604C194.809 33.991 195.546 36.6382 195.824 40.0019Z" fill="#FFEB00"/>
<path d="M161.371 29.9704C161.61 29.1145 162.207 28.6766 163.163 28.6567H168.238C168.497 28.6567 168.726 28.7164 168.925 28.8359C169.442 29.1742 169.612 29.7315 169.432 30.5078L159.222 70.5737C158.983 71.4295 158.386 71.8674 157.431 71.8873H152.355C152.096 71.8873 151.867 71.8276 151.668 71.7082C151.151 71.3698 150.982 70.8125 151.161 70.0363L161.371 29.9704Z" fill="#FFEB00"/>
<path d="M156.864 28.6567C158.038 28.6567 158.496 29.2937 158.237 30.5675L157.461 34.0904C157.401 34.3293 157.291 34.5681 157.132 34.8069C156.674 35.4439 156.107 35.7623 155.43 35.7623H146.862L137.995 70.5737C137.756 71.4295 137.159 71.8674 136.204 71.8873H131.068C130.71 71.8873 130.392 71.748 130.113 71.4693C129.834 71.1907 129.755 70.8125 129.874 70.3348L138.682 35.7623H129.576C129.436 35.7623 129.287 35.7524 129.128 35.7325C128.352 35.5931 128.123 34.8866 128.441 33.6127L129.397 29.851C129.476 29.5524 129.566 29.3136 129.665 29.1344C129.884 28.816 130.392 28.6567 131.188 28.6567H156.864Z" fill="#FFEB00"/>
<path d="M109.871 48.4509L112.11 48.1224C112.687 48.0428 113.016 47.9831 113.095 47.9433C114.727 47.386 115.802 46.6993 116.32 45.8833C116.817 45.0473 117.146 44.3308 117.305 43.7337C118.021 41.0666 118.38 38.8673 118.38 37.1357C118.38 36.8172 118.22 36.5286 117.902 36.2699C117.623 36.031 117.285 35.8718 116.887 35.7922C116.648 35.7524 115.981 35.7225 114.887 35.7026C114.349 35.7026 113.762 35.7026 113.125 35.7026L109.871 48.4509ZM104.945 35.6429H102.915C102.636 35.6429 102.377 35.5732 102.138 35.4339C101.621 35.1155 101.462 34.6278 101.661 33.971L102.735 29.851C102.775 29.6917 102.845 29.5325 102.944 29.3733C103.263 28.8956 103.651 28.6567 104.109 28.6567H116.827C118.539 28.6567 120.061 28.9155 121.395 29.433C124.4 30.6272 125.903 32.9559 125.903 36.4191C125.903 38.7877 125.435 41.3552 124.5 44.1218C123.485 47.1273 122.36 49.1773 121.126 50.272C119.793 51.5857 118.509 52.5609 117.275 53.1979L119.693 69.3795C119.733 69.6979 119.753 69.9965 119.753 70.2751C119.693 71.3499 119.136 71.8873 118.081 71.8873H113.364C113.165 71.8873 112.966 71.8475 112.767 71.7679C111.931 71.3897 111.413 70.4344 111.214 68.9018L109.423 54.4816H108.318L104.228 70.5737C103.989 71.4295 103.392 71.8674 102.437 71.8873H97.3615C97.1027 71.8873 96.8738 71.8276 96.6748 71.7082C96.1573 71.3698 95.9881 70.8125 96.1672 70.0363L104.945 35.6429Z" fill="#FFEB00"/>
<path d="M79.508 53.1383H85.9867L87.0316 37.7927L79.508 53.1383ZM76.015 60.2439L70.8798 70.753C70.4221 71.6287 69.6657 72.0268 68.6108 71.9472L63.9534 71.7681C63.9335 71.7681 63.8937 71.7681 63.834 71.7681C62.5601 71.6686 62.1621 70.9321 62.6398 69.5588L82.5831 31.1648C82.7225 30.8861 82.8916 30.6075 83.0907 30.3288C83.8669 29.2938 84.7924 28.7763 85.8672 28.7763L92.734 28.7166C93.1121 28.6967 93.4605 28.7564 93.7789 28.8958C94.6945 29.3137 95.1224 30.2094 95.0627 31.5827L92.8534 70.5739C92.734 71.4098 92.1369 71.8477 91.0621 71.8875H86.2255C86.0862 71.8875 85.9468 71.8775 85.8075 71.8576C85.0512 71.6984 84.7327 71.171 84.8522 70.2753L85.509 60.2439H76.015Z" fill="#FFEB00"/>
<path d="M55.8026 48.2717L58.0119 48.1224C58.191 48.1025 58.3801 48.0826 58.5791 48.0627C60.4302 47.7841 61.8533 46.7292 62.8484 44.8981C62.948 44.5796 63.0674 44.1915 63.2067 43.7337C63.9232 41.0268 64.2815 38.8275 64.2815 37.1357C64.2815 36.9167 64.1919 36.6978 64.0128 36.4788C63.6147 36.0012 63.1072 35.7623 62.4902 35.7623C62.2712 35.7424 61.704 35.7325 60.7884 35.7325C60.0321 35.7325 59.4449 35.7225 59.0269 35.7026L55.8026 48.2717ZM50.8466 35.6429H48.8164C48.5378 35.6429 48.279 35.5732 48.0402 35.4339C47.5227 35.1155 47.3634 34.6278 47.5625 33.971L48.6373 29.851C48.6771 29.6917 48.7467 29.5325 48.8463 29.3733C49.1647 28.8956 49.5528 28.6567 50.0106 28.6567H62.729C64.4407 28.6567 65.9633 28.9155 67.2969 29.433C70.3023 30.6272 71.805 32.9559 71.805 36.4191C71.805 38.6284 71.3373 41.196 70.4018 44.1218C69.347 47.4059 67.7547 49.8939 65.625 51.5857C63.3759 53.4566 59.5743 54.4219 54.2202 54.4816L50.13 70.5737C49.8912 71.4295 49.2941 71.8674 48.3387 71.8873H43.2633C43.0046 71.8873 42.7757 71.8276 42.5766 71.7082C42.0591 71.3698 41.89 70.8125 42.0691 70.0363L50.8466 35.6429Z" fill="#FFEB00"/>
</svg>
